<svg width="40" height="41" viewBox="0 0 40 41" fill="none" xmlns="http://www.w3.org/2000/svg">
<path d="M36.6038 24.0263C36.2804 23.2264 35.3696 22.8398 34.5696 23.1634C33.7695 23.4868 33.3831 24.3975 33.7066 25.1976L35.5468 29.7496L30.0813 27.3403C29.6857 27.1659 29.2355 27.1632 28.8378 27.3329C26.97 28.1298 24.9691 28.5339 22.8906 28.5339C14.5256 28.5339 8.90629 21.9843 8.90629 15.867C8.90629 8.88252 15.1796 3.20019 22.8906 3.20019C30.6016 3.20019 36.875 8.88252 36.875 15.867C36.875 16.412 36.8242 17.0645 36.7358 17.6571C36.6085 18.5106 37.1972 19.3057 38.0507 19.4331C38.9043 19.5607 39.6994 18.9717 39.8266 18.1182C39.9384 17.369 40 16.5695 40 15.867C40 11.6225 38.2026 7.63987 34.9388 4.65276C31.7137 1.7009 27.4348 0.0751953 22.8906 0.0751953C18.3464 0.0751953 14.0677 1.7009 10.8425 4.65269C7.9259 7.32206 6.18153 10.7867 5.84317 14.5226C2.17466 16.952 5.20945e-05 20.8448 5.20945e-05 25.038C5.20945e-05 27.6574 0.825285 30.1427 2.39614 32.2815L0.113958 37.927C-0.124401 38.5165 0.0183333 39.1918 0.474973 39.6344C0.772551 39.923 1.16466 40.0752 1.56286 40.0752C1.7756 40.0751 1.99013 40.0318 2.19278 39.9424L8.77316 37.0416C10.4285 37.6578 12.1782 37.9697 13.9843 37.9697C14.0234 37.9697 14.0617 37.9667 14.1001 37.9639C16.7124 37.9441 19.252 37.257 21.4515 35.9711C23.4216 34.8193 25.0423 33.2369 26.1784 31.3683C27.2877 31.169 28.372 30.8681 29.4243 30.4658L37.8072 34.1611C38.0099 34.2504 38.2244 34.294 38.4371 34.294C38.8353 34.2939 39.2275 34.1417 39.5251 33.8532C39.9817 33.4105 40.1244 32.7354 39.8861 32.1458L36.6038 24.0263ZM13.9845 34.8408C13.9632 34.8408 13.9424 34.8431 13.9212 34.844C12.3257 34.8358 10.7901 34.5222 9.35597 33.9104C8.9584 33.7406 8.50816 33.7433 8.11254 33.9178L4.4534 35.5308L5.63379 32.6108C5.85199 32.0711 5.75192 31.4547 5.37426 31.0116C3.90278 29.2853 3.12505 27.2198 3.12505 25.038C3.12505 22.5411 4.17544 20.1752 6.01324 18.3813C6.58543 21.5005 8.19988 24.4842 10.6353 26.8281C13.6658 29.7447 17.6744 31.4344 22.0029 31.6379C19.9707 33.6383 17.0626 34.8408 13.9845 34.8408Z" fill="#E91E63"/>
<path d="M22.8123 17.497C23.6752 17.497 24.3748 16.7975 24.3748 15.9345C24.3748 15.0716 23.6752 14.3721 22.8123 14.3721C21.9493 14.3721 21.2498 15.0716 21.2498 15.9345C21.2498 16.7975 21.9493 17.497 22.8123 17.497Z" fill="#E91E63"/>
<path d="M29.0622 17.497C29.9251 17.497 30.6247 16.7975 30.6247 15.9345C30.6247 15.0716 29.9251 14.3721 29.0622 14.3721C28.1992 14.3721 27.4997 15.0716 27.4997 15.9345C27.4997 16.7975 28.1992 17.497 29.0622 17.497Z" fill="#E91E63"/>
<path d="M16.5623 17.497C17.4252 17.497 18.1248 16.7975 18.1248 15.9345C18.1248 15.0716 17.4252 14.3721 16.5623 14.3721C15.6993 14.3721 14.9998 15.0716 14.9998 15.9345C14.9998 16.7975 15.6993 17.497 16.5623 17.497Z" fill="#E91E63"/>
</svg>
