<svg width="25" height="25" viewBox="0 0 25 25" fill="none" xmlns="http://www.w3.org/2000/svg">
<circle cx="12.5" cy="12.5" r="12" stroke="#E91E63"/>
<path d="M8.2793 9.83984C8.27083 9.77214 8.25391 9.71289 8.22852 9.66211C8.21159 9.60286 8.19043 9.53939 8.16504 9.47168C8.12272 9.37012 8.08464 9.26009 8.05078 9.1416C8.01693 9.02311 8 8.88346 8 8.72266C8.01693 8.63802 8.03809 8.57878 8.06348 8.54492C8.08887 8.5026 8.11426 8.46875 8.13965 8.44336L8.19043 8.21484H8.38086C8.44857 8.22331 8.51628 8.22754 8.58398 8.22754C8.66016 8.22754 8.7321 8.22754 8.7998 8.22754C9.12142 8.22754 9.4515 8.21484 9.79004 8.18945C10.1286 8.16406 10.4756 8.13444 10.8311 8.10059C11.2204 8.0498 11.6393 8.01172 12.0879 7.98633C12.1302 7.89323 12.1556 7.83398 12.1641 7.80859C12.181 7.7832 12.1979 7.75358 12.2148 7.71973L12.3545 7.64355C12.5492 7.63509 12.6846 7.66048 12.7607 7.71973C12.8369 7.77051 12.8962 7.82129 12.9385 7.87207C13.1585 7.85514 13.3828 7.83398 13.6113 7.80859C13.8398 7.77474 14.0768 7.74089 14.3223 7.70703C14.6608 7.66471 15.0036 7.6224 15.3506 7.58008C15.6976 7.53776 16.0361 7.5166 16.3662 7.5166C16.5101 7.5166 16.6455 7.52083 16.7725 7.5293C16.8994 7.53776 17.0221 7.55046 17.1406 7.56738L17.293 7.68164C17.3268 7.74089 17.3691 7.7959 17.4199 7.84668C17.4707 7.89746 17.5299 7.94824 17.5977 7.99902C17.7246 8.10059 17.8473 8.22754 17.9658 8.37988C18.0928 8.53223 18.1393 8.75651 18.1055 9.05273L18.042 9.17969C18.0081 9.21354 17.9658 9.2474 17.915 9.28125L17.7881 9.44629H17.6484C17.5638 9.44629 17.5003 9.45475 17.458 9.47168C17.4157 9.48014 17.3649 9.49707 17.3057 9.52246C17.2718 9.53939 17.2337 9.55632 17.1914 9.57324C17.1491 9.58171 17.1025 9.5944 17.0518 9.61133C16.9587 9.60286 16.8867 9.59863 16.8359 9.59863C16.7852 9.59863 16.7259 9.59863 16.6582 9.59863C16.4043 9.59863 16.1292 9.61556 15.833 9.64941C15.5368 9.68327 15.249 9.72135 14.9697 9.76367C14.7666 9.78906 14.5719 9.81445 14.3857 9.83984C14.1995 9.85677 14.0303 9.8737 13.8779 9.89062C13.7933 10.1107 13.7171 10.3053 13.6494 10.4746C13.5817 10.6439 13.5098 10.8132 13.4336 10.9824C13.3574 11.1517 13.2855 11.3252 13.2178 11.5029C13.1501 11.6722 13.0866 11.8626 13.0273 12.0742C12.9258 12.2266 12.8411 12.3747 12.7734 12.5186C12.7057 12.654 12.6507 12.8105 12.6084 12.9883C12.4814 13.1322 12.3883 13.2887 12.3291 13.458C12.2783 13.6273 12.2318 13.7712 12.1895 13.8896L12.1387 14.0801C12.0794 14.1393 12.0413 14.1859 12.0244 14.2197C12.016 14.2536 11.9948 14.2917 11.9609 14.334C11.9355 14.444 11.9017 14.5498 11.8594 14.6514C11.8424 14.6937 11.8255 14.7402 11.8086 14.791C11.7917 14.8333 11.7874 14.8672 11.7959 14.8926C11.779 14.9857 11.7536 15.0576 11.7197 15.1084C11.7197 15.1592 11.7155 15.21 11.707 15.2607C11.6986 15.3115 11.6901 15.3623 11.6816 15.4131C11.6647 15.4723 11.652 15.5273 11.6436 15.5781C11.6351 15.6204 11.6393 15.6628 11.6562 15.7051C11.6816 15.7389 11.707 15.7728 11.7324 15.8066C11.7578 15.8405 11.779 15.8828 11.7959 15.9336C11.8128 15.9505 11.834 15.9632 11.8594 15.9717C11.8848 15.9801 11.9059 15.9928 11.9229 16.0098C11.9906 16.069 12.054 16.1029 12.1133 16.1113L12.2402 16.2637C12.291 16.5684 12.2445 16.8053 12.1006 16.9746C11.9482 17.1693 11.6943 17.2666 11.3389 17.2666L11.1611 17.2539C11.1019 17.1947 11.068 17.1566 11.0596 17.1396C10.9834 17.1058 10.9199 17.0762 10.8691 17.0508C10.8184 17.0339 10.7718 16.9958 10.7295 16.9365C10.7126 16.9196 10.6914 16.9111 10.666 16.9111C10.6406 16.9027 10.6195 16.89 10.6025 16.873C10.5179 16.8477 10.4502 16.818 10.3994 16.7842L10.2598 16.708C10.2682 16.6234 10.2725 16.5641 10.2725 16.5303C10.2048 16.4372 10.1497 16.3356 10.1074 16.2256C10.0736 16.1156 10.0439 16.0013 10.0186 15.8828C9.99316 15.7897 9.96777 15.7051 9.94238 15.6289C9.92546 15.5527 9.89583 15.485 9.85352 15.4258C9.83659 14.8333 9.8916 14.3382 10.0186 13.9404C10.1455 13.5342 10.2852 13.1406 10.4375 12.7598C10.5221 12.5566 10.6025 12.3493 10.6787 12.1377C10.7549 11.9261 10.8226 11.7103 10.8818 11.4902L11.0215 11.3506C11.0807 11.2998 11.1188 11.2702 11.1357 11.2617C11.1357 11.1517 11.1569 11.0459 11.1992 10.9443C11.2415 10.8343 11.2881 10.7243 11.3389 10.6143C11.3727 10.5465 11.4023 10.4788 11.4277 10.4111C11.4616 10.3434 11.4827 10.2842 11.4912 10.2334C11.432 10.2334 11.377 10.2376 11.3262 10.2461C11.2839 10.2461 11.2373 10.2503 11.1865 10.2588C11.0765 10.2842 10.9707 10.2969 10.8691 10.2969C10.793 10.2969 10.738 10.2926 10.7041 10.2842C10.6364 10.318 10.5729 10.3392 10.5137 10.3477C10.4544 10.3477 10.3952 10.3477 10.3359 10.3477H10.1836H10.0312C9.92969 10.3477 9.84928 10.3604 9.79004 10.3857C9.67155 10.3857 9.59538 10.3857 9.56152 10.3857C9.52767 10.3857 9.48958 10.3857 9.44727 10.3857H9.29492H9.14258C9.07487 10.3857 8.9987 10.3815 8.91406 10.373C8.82943 10.3561 8.74056 10.3223 8.64746 10.2715L8.55859 10.1699C8.50781 10.0768 8.46126 10.026 8.41895 10.0176L8.2793 9.97949V9.83984Z" fill="#E91E63"/>
</svg>
